<svg width="18" height="18" viewBox="0 0 18 18" fill="none" xmlns="http://www.w3.org/2000/svg">
<path d="M9 2C9.92826 2 10.8185 2.36875 11.4749 3.02513C12.1313 3.6815 12.5 4.57174 12.5 5.5C12.5 6.42826 12.1313 7.3185 11.4749 7.97487C10.8185 8.63125 9.92826 9 9 9C8.07174 9 7.1815 8.63125 6.52513 7.97487C5.86875 7.3185 5.5 6.42826 5.5 5.5C5.5 4.57174 5.86875 3.6815 6.52513 3.02513C7.1815 2.36875 8.07174 2 9 2ZM9 10.75C12.8675 10.75 16 12.3162 16 14.25V16H2V14.25C2 12.3162 5.1325 10.75 9 10.75Z" fill="#808080"/>
</svg>
