<svg width="14" height="14" viewBox="0 0 14 14" fill="none" xmlns="http://www.w3.org/2000/svg">
<path fill-rule="evenodd" clip-rule="evenodd" d="M6.71875 13.75L1.9375 10.9672V8.54145L4.975 10.4572L6.71875 8.36718V13.75ZM7.28125 13.7494V8.34571L9.05987 10.3971L12.0625 8.58195V10.9672L7.28125 13.7494ZM1.46556 7.53632L0.25 6.77295L1.9375 4.74673L0.25 3.01443L5.15388 0.25L6.96231 1.71352L8.83263 0.25L13.75 3.0488L12.0653 4.74918L13.75 6.86193L12.4889 7.62345V7.62284L9.16844 9.62943L7.28519 7.45655L11.4567 5.02532L7.00056 2.3425L2.54387 5.02532L6.71875 7.4412V7.45593L4.86419 9.67852L1.9375 7.83271L1.8475 7.77625L1.46556 7.53509V7.53632Z" fill="#808080"/>
</svg>
